<svg xmlns="http://www.w3.org/2000/svg" viewBox="0 0 54.18 36.59"><title>Recurso 2</title><g id="Capa_2" data-name="Capa 2"><g id="Capa_1-2" data-name="Capa 1"><path d="M19.56,30.82h0a14.47,14.47,0,1,1,0-28.94h0a14.42,14.42,0,0,1,9.56,3.62,1.09,1.09,0,0,1-1.44,1.63,12.24,12.24,0,0,0-8.12-3.07h0A12.3,12.3,0,0,0,13.36,27a12.4,12.4,0,0,0,6.2,1.68h0a12.24,12.24,0,0,0,8.15-3.09,1.09,1.09,0,1,1,1.45,1.62,14.42,14.42,0,0,1-9.59,3.64Z"/><path d="M38.25,30.79a1,1,0,0,1-1-.74L29.1,9.48a1.09,1.09,0,1,1,2.06-.7l7.09,17.55,9-25.59a1.09,1.09,0,1,1,2.06.7l-10,28.62A1,1,0,0,1,38.25,30.79Z"/><rect x="15.58" y="16.31" width="8.52" height="0.95" rx="0.47" ry="0.47"/><rect x="15.58" y="21.04" width="8.52" height="0.95" rx="0.47" ry="0.47"/><rect x="15.58" y="11.58" width="8.52" height="0.95" rx="0.47" ry="0.47"/><path d="M8.48,34.17a.7.7,0,0,0-.11-.25.84.84,0,0,0-.21-.21,1,1,0,0,0-.29-.14,1.18,1.18,0,0,0-.35,0,1.28,1.28,0,0,0-.48.09,1,1,0,0,0-.37.25,1.15,1.15,0,0,0-.23.42,1.88,1.88,0,0,0-.08.58,1.91,1.91,0,0,0,.08.59,1.19,1.19,0,0,0,.23.43,1,1,0,0,0,.36.26,1.21,1.21,0,0,0,.47.09,1.12,1.12,0,0,0,.65-.18.76.76,0,0,0,.32-.51h.23a1.05,1.05,0,0,1-.14.39,1,1,0,0,1-.26.29,1.14,1.14,0,0,1-.36.18,1.51,1.51,0,0,1-.44.06,1.43,1.43,0,0,1-.58-.11A1.23,1.23,0,0,1,6.51,36a1.42,1.42,0,0,1-.28-.5,2.07,2.07,0,0,1-.1-.66,2,2,0,0,1,.1-.65,1.4,1.4,0,0,1,.28-.49,1.22,1.22,0,0,1,.44-.31,1.45,1.45,0,0,1,.58-.11,1.35,1.35,0,0,1,.42.06,1.25,1.25,0,0,1,.36.18,1.1,1.1,0,0,1,.27.27,1,1,0,0,1,.15.35Z"/><path d="M10.67,33.3a1.46,1.46,0,0,1,.57.11,1.29,1.29,0,0,1,.45.32,1.47,1.47,0,0,1,.3.49,1.84,1.84,0,0,1,.11.64,1.88,1.88,0,0,1-.11.64,1.49,1.49,0,0,1-.3.5,1.32,1.32,0,0,1-.45.32,1.51,1.51,0,0,1-1.16,0A1.32,1.32,0,0,1,9.64,36a1.47,1.47,0,0,1-.3-.5,1.89,1.89,0,0,1-.11-.65,1.85,1.85,0,0,1,.11-.65,1.44,1.44,0,0,1,.3-.49,1.32,1.32,0,0,1,.45-.31A1.46,1.46,0,0,1,10.67,33.3Zm0,2.92a1.26,1.26,0,0,0,.48-.09,1.05,1.05,0,0,0,.38-.26,1.22,1.22,0,0,0,.25-.43,1.75,1.75,0,0,0,.09-.58,1.69,1.69,0,0,0-.09-.58,1.21,1.21,0,0,0-.25-.42,1,1,0,0,0-.38-.26,1.26,1.26,0,0,0-.48-.09,1.28,1.28,0,0,0-.48.09,1.06,1.06,0,0,0-.38.26,1.19,1.19,0,0,0-.25.42,1.68,1.68,0,0,0-.09.57,1.75,1.75,0,0,0,.09.58,1.23,1.23,0,0,0,.25.43,1,1,0,0,0,.38.26A1.26,1.26,0,0,0,10.67,36.23Z"/><path d="M15.08,36.39h-.29l-1.85-2.77v2.77h-.22v-3H13l1.84,2.77V33.36h.22Z"/><path d="M17.94,33.58H16.88v2.81h-.22V33.58H15.6v-.22h2.33Z"/><path d="M20.92,36.39h-.24l-.3-.81a2,2,0,0,0-.1-.22.8.8,0,0,0-.13-.18.55.55,0,0,0-.16-.12.5.5,0,0,0-.22,0H18.7v1.37h-.22v-3h1.37a1.94,1.94,0,0,1,.37,0,.91.91,0,0,1,.32.12.64.64,0,0,1,.22.25.85.85,0,0,1,.08.4,1,1,0,0,1,0,.28.73.73,0,0,1-.11.24.69.69,0,0,1-.19.18.85.85,0,0,1-.28.11l.14.13.1.13a1.06,1.06,0,0,1,.07.15l.07.19ZM18.7,34.8h1.05a1.93,1.93,0,0,0,.39,0,.67.67,0,0,0,.26-.11.45.45,0,0,0,.15-.2.79.79,0,0,0,0-.3.5.5,0,0,0-.2-.45,1.06,1.06,0,0,0-.59-.13H18.7Z"/><path d="M22.88,33.3a1.46,1.46,0,0,1,.57.11,1.29,1.29,0,0,1,.45.32,1.47,1.47,0,0,1,.3.49,1.84,1.84,0,0,1,.11.64,1.88,1.88,0,0,1-.11.64,1.49,1.49,0,0,1-.3.5,1.32,1.32,0,0,1-.45.32,1.51,1.51,0,0,1-1.16,0,1.32,1.32,0,0,1-.45-.32,1.47,1.47,0,0,1-.3-.5,1.89,1.89,0,0,1-.11-.65,1.85,1.85,0,0,1,.11-.65,1.44,1.44,0,0,1,.3-.49,1.32,1.32,0,0,1,.45-.31A1.46,1.46,0,0,1,22.88,33.3Zm0,2.92a1.26,1.26,0,0,0,.48-.09,1.05,1.05,0,0,0,.38-.26,1.22,1.22,0,0,0,.25-.43,1.75,1.75,0,0,0,.09-.58,1.69,1.69,0,0,0-.09-.58,1.21,1.21,0,0,0-.25-.42,1,1,0,0,0-.38-.26,1.26,1.26,0,0,0-.48-.09,1.28,1.28,0,0,0-.48.09,1.06,1.06,0,0,0-.38.26,1.19,1.19,0,0,0-.25.42,1.68,1.68,0,0,0-.09.57,1.75,1.75,0,0,0,.09.58,1.23,1.23,0,0,0,.25.43,1,1,0,0,0,.38.26A1.26,1.26,0,0,0,22.87,36.23Z"/><path d="M26.74,36.39H25v-3h.22v2.81h1.57Z"/><path d="M32.29,34.85a1.36,1.36,0,0,1-1.53,1.54h-.92v-3h.92a1.6,1.6,0,0,1,1.15.37A1.49,1.49,0,0,1,32.29,34.85Zm-.24,0a2.19,2.19,0,0,0-.06-.53.92.92,0,0,0-.21-.4.94.94,0,0,0-.4-.25,2,2,0,0,0-.63-.09h-.69v2.59h.69a1.91,1.91,0,0,0,.63-.09.93.93,0,0,0,.4-.26,1,1,0,0,0,.21-.41A2.31,2.31,0,0,0,32.05,34.85Z"/><path d="M35.15,36.39H33v-3h2.12v.22h-1.9V34.7H35v.22H33.17v1.25h2Z"/><path d="M40.69,33.36l-1.19,3h-.29l-1.19-3h.25l1.09,2.76,1.09-2.76Z"/><path d="M41.51,36.39h-.22v-3h.22Z"/><path d="M43.5,36.45a2,2,0,0,1-.54-.07,1.13,1.13,0,0,1-.39-.19.82.82,0,0,1-.24-.29,1,1,0,0,1-.1-.38h.22a.85.85,0,0,0,.12.34.71.71,0,0,0,.23.22.94.94,0,0,0,.31.11,1.92,1.92,0,0,0,.37,0,1.42,1.42,0,0,0,.36,0,.85.85,0,0,0,.28-.12.57.57,0,0,0,.18-.2.54.54,0,0,0,.06-.26.56.56,0,0,0-.05-.26.47.47,0,0,0-.18-.18,1.37,1.37,0,0,0-.33-.14l-.51-.12a2.76,2.76,0,0,1-.43-.13,1.13,1.13,0,0,1-.3-.17.6.6,0,0,1-.17-.22.69.69,0,0,1-.06-.29.7.7,0,0,1,.07-.32.74.74,0,0,1,.21-.25,1,1,0,0,1,.33-.16,1.47,1.47,0,0,1,.43-.06,1.59,1.59,0,0,1,.43.05,1.09,1.09,0,0,1,.34.16.83.83,0,0,1,.35.58h-.21a.74.74,0,0,0-.1-.23.67.67,0,0,0-.18-.18.87.87,0,0,0-.26-.12,1.26,1.26,0,0,0-.35,0,1.06,1.06,0,0,0-.62.15.48.48,0,0,0-.21.41.52.52,0,0,0,0,.21.41.41,0,0,0,.13.16.9.9,0,0,0,.25.12l.38.1.27.06.28.07.26.1a.83.83,0,0,1,.21.15.67.67,0,0,1,.14.21.72.72,0,0,1,.05.29.78.78,0,0,1-.08.36.85.85,0,0,1-.23.28,1.07,1.07,0,0,1-.35.18A1.41,1.41,0,0,1,43.5,36.45Z"/><path d="M45.58,36.39h-.22v-3h.22Z"/><path d="M48.55,33.58H47.49v2.81h-.22V33.58H46.22v-.22h2.33Z"/><path d="M51.5,36.39h-.27l-.37-1H49.36l-.17.49-.18.49h-.24l.3-.77.29-.75.29-.75.3-.77h.31Zm-.7-1.15-.7-1.69-.67,1.69Z"/><path d="M53.08,36.45a2,2,0,0,1-.54-.07,1.13,1.13,0,0,1-.39-.19.82.82,0,0,1-.24-.29,1,1,0,0,1-.1-.38H52a.85.85,0,0,0,.12.34.71.71,0,0,0,.23.22.94.94,0,0,0,.31.11,1.92,1.92,0,0,0,.37,0,1.42,1.42,0,0,0,.36,0,.85.85,0,0,0,.28-.12.57.57,0,0,0,.18-.2.54.54,0,0,0,.06-.26.56.56,0,0,0-.05-.26.47.47,0,0,0-.18-.18,1.37,1.37,0,0,0-.33-.14l-.51-.12a2.76,2.76,0,0,1-.43-.13,1.13,1.13,0,0,1-.3-.17.6.6,0,0,1-.17-.22.69.69,0,0,1-.06-.29.7.7,0,0,1,.07-.32.74.74,0,0,1,.21-.25,1,1,0,0,1,.33-.16A1.47,1.47,0,0,1,53,33.3a1.59,1.59,0,0,1,.43.05,1.09,1.09,0,0,1,.34.16.83.83,0,0,1,.35.58h-.21a.74.74,0,0,0-.1-.23.67.67,0,0,0-.18-.18.87.87,0,0,0-.26-.12,1.26,1.26,0,0,0-.35,0,1.06,1.06,0,0,0-.62.15.48.48,0,0,0-.21.41.52.52,0,0,0,0,.21.41.41,0,0,0,.13.16.9.9,0,0,0,.25.12l.38.1.27.06.28.07.26.1a.83.83,0,0,1,.21.15.67.67,0,0,1,.14.21.72.72,0,0,1,.05.29.78.78,0,0,1-.08.36.85.85,0,0,1-.23.28,1.07,1.07,0,0,1-.35.18A1.41,1.41,0,0,1,53.08,36.45Z"/><path d="M.08,36.13l3.27-3.27a.28.28,0,0,1,.48.2v3a.48.48,0,0,1-.48.48H.27A.27.27,0,0,1,.08,36.13Z"/></g></g></svg>